<svg id="visual" viewBox="0 0 900 600" width="900" height="600" xmlns="http://www.w3.org/2000/svg" xmlns:xlink="http://www.w3.org/1999/xlink" version="1.1"><rect x="0" y="0" width="900" height="600" fill="#FFFFFF"></rect><defs><linearGradient id="grad1_0" x1="33.3%" y1="0%" x2="100%" y2="100%"><stop offset="20%" stop-color="#ffffff" stop-opacity="1"></stop><stop offset="80%" stop-color="#ffffff" stop-opacity="1"></stop></linearGradient></defs><defs><linearGradient id="grad2_0" x1="0%" y1="0%" x2="66.7%" y2="100%"><stop offset="20%" stop-color="#ffffff" stop-opacity="1"></stop><stop offset="80%" stop-color="#ffffff" stop-opacity="1"></stop></linearGradient></defs><g transform="translate(900, 0)"><path d="M0 297.5C-39.6 282.2 -79.2 266.9 -98.7 238.4C-118.2 209.8 -117.6 167.9 -149.2 149.2C-180.8 130.5 -244.7 134.8 -274.8 113.8C-304.9 92.8 -301.2 46.4 -297.5 0L0 0Z" fill="#4FACF7"></path></g><g transform="translate(0, 600)"><path d="M0 -297.5C43.9 -299.4 87.8 -301.3 113.8 -274.8C139.9 -248.4 148.2 -193.6 158.4 -158.4C168.6 -123.2 180.7 -107.7 204.2 -84.6C227.7 -61.4 262.6 -30.7 297.5 0L0 0Z" fill="#4FACF7"></path></g></svg>